<svg width="25" height="24" viewBox="0 0 25 24" fill="none" xmlns="http://www.w3.org/2000/svg">
<path d="M20.54 6.82L14.78 2.79C13.21 1.69 10.8 1.75 9.28999 2.92L4.27999 6.83C3.27999 7.61 2.48999 9.21 2.48999 10.47V17.37C2.48999 19.92 4.55999 22 7.10999 22H17.89C20.44 22 22.51 19.93 22.51 17.38V10.6C22.51 9.25 21.64 7.59 20.54 6.82ZM13.25 18C13.25 18.41 12.91 18.75 12.5 18.75C12.09 18.75 11.75 18.41 11.75 18V15C11.75 14.59 12.09 14.25 12.5 14.25C12.91 14.25 13.25 14.59 13.25 15V18Z" fill="#C2C2C2"/>
</svg>
